<?xml version="1.0" encoding="UTF-8" standalone="no"?>
<svg
   xmlns:dc="http://purl.org/dc/elements/1.1/"
   xmlns:cc="http://creativecommons.org/ns#"
   xmlns:rdf="http://www.w3.org/1999/02/22-rdf-syntax-ns#"
   xmlns:svg="http://www.w3.org/2000/svg"
   xmlns="http://www.w3.org/2000/svg"
   xmlns:sodipodi="http://sodipodi.sourceforge.net/DTD/sodipodi-0.dtd"
   xmlns:inkscape="http://www.inkscape.org/namespaces/inkscape"
   version="1.1"
   id="svg11519"
   width="1084.6479"
   height="515.87097"
   viewBox="0 0 1084.648 515.91055"
   inkscape:version="0.91 r13725"
   sodipodi:docname="Disney Black background.svg">
  <sodipodi:namedview
     pagecolor="#ffffff"
     bordercolor="#666666"
     borderopacity="1"
     objecttolerance="10"
     gridtolerance="10"
     guidetolerance="10"
     inkscape:pageopacity="0"
     inkscape:pageshadow="2"
     inkscape:window-width="1366"
     inkscape:window-height="705"
     id="namedview4708"
     showgrid="false"
     inkscape:zoom="0.5"
     inkscape:cx="505.1073"
     inkscape:cy="257.85737"
     inkscape:window-x="-8"
     inkscape:window-y="-8"
     inkscape:window-maximized="1"
     inkscape:current-layer="svg11519" />
  <metadata
     id="metadata11527">
    <rdf:RDF>
      <cc:Work
         rdf:about="">
        <dc:format>image/svg+xml</dc:format>
        <dc:type
           rdf:resource="http://purl.org/dc/dcmitype/StillImage" />
        <dc:title></dc:title>
      </cc:Work>
    </rdf:RDF>
  </metadata>
  <defs
     id="defs11525" />
  <path
     style="fill:#000000;fill-opacity:1;fill-rule:nonzero;stroke:none;stroke-width:70;stroke-linecap:round;stroke-linejoin:round;stroke-miterlimit:4;stroke-dasharray:none;stroke-opacity:1"
     d="m -0.03839406,-2.9657611e-4 0,515.91096657611 1084.72719406,0 0,-515.91096657611 z"
     id="rect4155"
     inkscape:connector-curvature="0"
     sodipodi:nodetypes="ccccc" />
  <path
     id="path11521"
     d="m 906.8524,230.98628 c -16.91698,3.90392 -61.59514,6.07276 -61.59514,6.07276 l -5.4944,17.63993 c 0,0 22.12219,-1.87967 38.31622,-0.28918 0,0 5.20522,-0.43377 5.78358,5.78359 0.28918,6.36194 -0.43377,13.01305 -0.43377,13.01305 0,0 -0.43376,3.90392 -5.78358,4.91605 -6.21735,1.01212 -48.14831,2.89179 -48.14831,2.89179 l -6.79571,22.84514 c 0,0 -2.45802,5.20523 3.18096,3.75933 5.20523,-1.4459 49.16044,-9.83208 54.94403,-8.67538 6.07275,1.44591 13.01306,9.83209 10.9888,17.35075 -2.31343,9.10915 -46.26865,37.15952 -72.87312,35.27985 0,0 -14.02519,0.86754 -25.73693,-18.07369 -11.27799,-18.07369 3.90392,-52.05223 3.90392,-52.05223 0,0 -6.79572,-15.90485 -1.73508,-21.68843 0,0 2.89178,-2.45803 11.56716,-3.18098 l 10.84421,-22.26679 c 0,0 -12.29011,0.72295 -19.51959,-8.2416 -6.65111,-8.67537 -7.22947,-12.4347 -2.02425,-14.74813 5.49441,-2.89179 56.38992,-12.00093 91.38059,-10.84422 0,0 12.2901,-1.44589 23.13432,19.80877 0,0 4.91604,8.67537 -3.75933,10.69962 m -132.01023,85.59701 c -4.33769,10.55503 -16.33862,21.68843 -30.79757,14.89272 -14.74814,-6.9403 -38.02705,-54.36566 -38.02705,-54.36566 0,0 -8.67537,-17.63992 -10.41045,-17.06156 0,0 -1.87966,-3.47016 -2.8918,15.90484 -1.44589,19.23041 0.28919,56.6791 -7.66323,62.60727 -7.22948,5.78359 -15.90485,3.32556 -20.8209,-3.47014 -4.0485,-6.79572 -5.78358,-23.13434 -3.47014,-51.61847 2.60261,-28.48414 9.10914,-58.84794 17.35073,-68.24626 8.67537,-9.54291 15.61568,-2.60262 18.21829,0 0,0 11.13339,10.12126 29.93003,40.0513 l 3.18098,5.49441 c 0,0 17.06156,28.48413 18.79663,28.33954 0,0 1.44589,1.4459 2.60261,0.28918 1.73508,-0.43377 1.15672,-9.6875 1.15672,-9.6875 0,0 -3.18097,-30.79757 -19.08582,-82.84981 0,0 -2.31344,-6.65111 -0.72295,-13.01305 1.4459,-5.78359 7.66324,-2.89179 7.66324,-2.89179 0,0 24.00187,11.56716 35.71362,50.60633 11.56717,39.03918 3.75933,74.46361 -0.57836,85.01865 M 657.29086,216.38274 c -2.31342,4.04851 -3.32556,9.6875 -13.30223,11.27799 0,0 -96.87499,6.7957 -101.64644,13.59141 0,0 -3.18097,4.04851 2.02425,5.06063 5.4944,1.15672 27.47201,4.04851 37.88246,4.62687 11.27798,0 49.16044,0.28918 63.04103,17.35075 0,0 7.95243,8.09701 7.66325,26.45988 -0.28918,18.79664 -3.61474,25.44776 -10.9888,32.24347 -7.66325,6.36194 -73.3069,35.8582 -115.67163,-9.25373 0,0 -19.375,-21.68843 6.79571,-38.17164 0,0 18.79663,-11.56716 66.94495,1.87967 0,0 14.45895,5.20522 13.8806,10.55503 -0.86754,5.78359 -12.00093,11.56716 -28.19496,11.27798 -15.61567,-0.43377 -27.18283,-7.95242 -24.8694,-6.65111 2.16884,0.72294 -16.91698,-9.25373 -22.84515,-2.45803 -5.78358,6.36195 -4.33768,10.12128 1.44589,14.02519 14.45897,8.38619 71.28264,5.34981 88.19962,-13.59141 0,0 6.79571,-7.66325 -3.47014,-13.8806 -10.12128,-5.78358 -39.61754,-9.39832 -51.04011,-9.83209 -10.84422,-0.57835 -51.47388,0 -57.54664,-10.55503 0,0 -5.78358,-7.51867 0.57836,-28.05038 6.65112,-21.68843 53.9319,-30.07462 74.46362,-31.8097 0,0 56.38991,-2.31343 66.94495,9.25373 0,0 1.44589,2.60261 -0.28919,6.50653 M 497.37484,343.47694 c -6.7957,5.06064 -21.25466,2.8918 -25.44776,-2.89179 -4.0485,-5.06063 -5.4944,-25.01398 -4.77145,-56.38991 1.01213,-32.09888 1.44589,-71.42724 8.67537,-77.78918 7.22948,-6.21735 11.56717,-0.72294 14.45895,3.47015 2.8918,4.33769 6.65113,9.10914 7.22949,19.08582 0.86753,10.12127 3.32556,62.17351 3.32556,62.17351 0,0 3.18096,47.42536 -3.32556,52.3414 m 14.31435,-169.16975 c -19.95335,6.79571 -33.54477,4.62686 -45.11192,-0.43377 -5.06064,9.10914 -8.09702,11.85634 -11.85635,12.4347 -5.78358,0.57836 -10.84421,-8.67537 -11.56716,-11.56716 -1.15672,-2.16885 -3.90392,-6.07277 -0.57836,-14.89273 -11.27798,-10.12126 -12.14552,-23.71268 -10.12127,-32.82182 2.60261,-10.69962 21.68844,-50.895519 79.52425,-55.666973 0,0 28.33954,-2.024258 33.25559,13.013057 l 0.86754,0 c 0,0 27.47201,0 26.89365,24.580226 0,24.58022 -30.3638,55.2332 -61.30597,65.78824 m 25.73695,-70.4151 c -18.21829,2.89179 -46.26866,27.18283 -59.71548,47.28077 20.6763,3.75933 56.82368,2.31343 73.01771,-30.3638 0,0 7.66325,-20.53171 -13.30223,-16.91697 m -79.95801,15.90485 c -5.78359,9.39831 -6.07277,15.03731 -3.32556,18.79663 6.7957,-10.12126 18.79663,-26.02611 36.87033,-38.46081 -13.8806,1.44589 -25.59235,7.22947 -33.54477,19.66418 m 492.61652,222.23411 c -13.30223,32.67724 -24.58021,65.78823 -31.08674,115.38245 0,0 -1.4459,9.6875 -9.39833,6.50652 -7.95242,-2.89179 -20.96548,-15.90485 -23.85727,-34.26772 -2.89178,-24.00186 7.80784,-64.48693 29.64086,-111.04476 -6.36195,-10.12126 -10.84421,-25.15857 -7.22948,-46.26865 0,0 5.78358,-39.03918 44.82275,-74.31902 0,0 4.62687,-3.90392 7.22949,-2.60261 3.18096,1.44589 1.87965,13.88059 -0.72296,20.24253 -2.31343,6.07276 -19.66418,36.14739 -19.66418,36.14739 0,0 -10.84421,20.53171 -7.80783,36.58115 20.53172,-31.52052 67.23413,-95.42909 96.15204,-75.18656 18.3629,13.01306 18.3629,54.94403 4.6269,79.23507 -10.8442,19.2304 -41.49723,58.99253 -82.41606,49.7388 m 60.14926,-98.32089 c -10.69965,11.56716 -29.78546,33.54478 -44.82278,63.33022 15.90485,-1.73507 31.37593,-10.55503 36.14738,-15.03731 7.6633,-6.79571 25.3032,-25.15857 22.556,-49.44962 0,0 -1.7351,-12.72388 -13.8806,1.15671 M 362.90658,359.52638 c -51.18469,15.61568 -99.4776,8.3862 -125.79289,1.4459 -0.72295,10.69962 -1.87967,15.1819 -3.61474,16.91697 -2.02425,2.31343 -18.79664,11.85635 -28.05037,-1.73507 -4.0485,-6.50653 -6.07276,-18.21829 -7.22947,-28.91791 -59.28171,-26.89365 -86.75372,-66.51118 -87.62126,-67.95708 -1.44589,-1.44589 -14.892721,-15.47107 -1.44589,-32.82183 12.57928,-15.61567 54.22107,-31.37592 91.52517,-37.59327 1.44589,-31.8097 4.91604,-56.38992 9.39832,-67.23413 5.34981,-13.01306 12.14552,-1.4459 18.21828,7.22947 4.91604,6.50653 7.95242,34.41231 8.2416,56.6791 24.29104,-1.15672 39.03917,0.57835 66.07741,5.78358 35.56903,6.07276 59.28172,24.29104 57.40205,44.82275 -1.73508,20.24254 -20.24253,28.62874 -27.47201,29.2071 -7.22948,0.57836 -18.79664,-4.77147 -18.79664,-4.77147 -8.09701,-3.75932 -0.72295,-7.22947 8.67537,-11.27797 10.41045,-5.06063 8.09702,-10.12127 8.09702,-10.12127 -3.75933,-11.56717 -49.88339,-19.23042 -95.71827,-19.23042 0,25.30318 1.01212,67.23414 1.73507,91.66977 32.09887,6.07277 56.10074,4.77146 56.10074,4.77146 0,0 117.11752,-3.32557 120.44308,-78.07834 C 416.69388,183.41633 295.96163,111.69992 207.03906,89.143949 118.2611,65.865039 67.94394,82.348241 63.606254,84.517083 c -4.771455,2.313434 -0.433769,3.180971 -0.433769,3.180971 0,0 4.771455,0.722947 13.446826,3.614738 8.675372,2.89179 1.735074,7.229476 1.735074,7.229476 C 63.172485,103.7475 46.25551,100.71112 42.929951,93.770814 39.604392,86.975106 45.098794,80.757756 51.605323,71.648616 57.678083,62.250289 64.61838,62.539479 64.61838,62.539479 174.50642,24.223248 308.6855,92.903276 308.6855,92.903276 434.18922,156.2335 455.58847,230.69711 453.27504,259.61502 c -2.02426,28.48414 -13.01306,76.63244 -90.36846,100.05595 M 121.44207,256.14486 c -12.4347,5.78359 -3.75933,15.03732 -3.75933,15.03732 23.4235,25.01399 52.05223,40.77424 79.52423,50.60633 3.18098,-43.37686 2.8918,-58.84793 2.8918,-80.68096 -42.50933,2.89179 -67.08954,9.83209 -78.6567,15.03731"
     inkscape:connector-curvature="0"
     style="fill:#ffffff;fill-opacity:1"
     sodipodi:nodetypes="cccccccccccccccccccccccccccccccccccccccsccccccccccccccccccccccccccccccccccccccccccccccccccccccccccccccccccccccccccccccccccccccsccccccccccscccccccccccc" />
</svg>
